<mxfile host="app.diagrams.net" agent="Mozilla/5.0 (Windows NT 10.0; Win64; x64) AppleWebKit/537.36 (KHTML, like Gecko) Chrome/130.0.0.0 Safari/537.36" version="24.8.3">
  <diagram name="Page-1" id="TYZtikzrQvf7M8v5D8e1">
    <mxGraphModel dx="1434" dy="744" grid="1" gridSize="10" guides="1" tooltips="1" connect="1" arrows="1" fold="1" page="1" pageScale="1" pageWidth="827" pageHeight="1169" math="0" shadow="0">
      <root>
        <mxCell id="0" />
        <mxCell id="1" parent="0" />
        <mxCell id="fHx4By7_KxZR_WeOEdYY-1" value="DataStructures" style="shape=module;align=left;spacingLeft=20;align=center;verticalAlign=top;whiteSpace=wrap;html=1;" vertex="1" parent="1">
          <mxGeometry x="130" y="320" width="100" height="50" as="geometry" />
        </mxCell>
        <mxCell id="fHx4By7_KxZR_WeOEdYY-6" style="edgeStyle=orthogonalEdgeStyle;rounded=0;orthogonalLoop=1;jettySize=auto;html=1;entryX=1;entryY=0.5;entryDx=0;entryDy=0;" edge="1" parent="1" source="fHx4By7_KxZR_WeOEdYY-2" target="fHx4By7_KxZR_WeOEdYY-1">
          <mxGeometry relative="1" as="geometry" />
        </mxCell>
        <mxCell id="fHx4By7_KxZR_WeOEdYY-2" value="GeoLib&lt;div&gt;&lt;br&gt;&lt;/div&gt;" style="shape=module;align=left;spacingLeft=20;align=center;verticalAlign=top;whiteSpace=wrap;html=1;" vertex="1" parent="1">
          <mxGeometry x="300" y="320" width="100" height="50" as="geometry" />
        </mxCell>
        <mxCell id="fHx4By7_KxZR_WeOEdYY-5" style="edgeStyle=orthogonalEdgeStyle;rounded=0;orthogonalLoop=1;jettySize=auto;html=1;entryX=1;entryY=0.5;entryDx=0;entryDy=0;" edge="1" parent="1" source="fHx4By7_KxZR_WeOEdYY-3" target="fHx4By7_KxZR_WeOEdYY-2">
          <mxGeometry relative="1" as="geometry" />
        </mxCell>
        <mxCell id="fHx4By7_KxZR_WeOEdYY-3" value="GeoViewer" style="shape=module;align=left;spacingLeft=20;align=center;verticalAlign=top;whiteSpace=wrap;html=1;" vertex="1" parent="1">
          <mxGeometry x="470" y="320" width="100" height="50" as="geometry" />
        </mxCell>
      </root>
    </mxGraphModel>
  </diagram>
</mxfile>
